PathFileType	4	(X/Y/Z)	Run_200 02
DataRate	CameraRate	NumFrames	NumMarkers	Units	OrigDataRate	OrigDataStartFrame	OrigNumFrames
120	120	4	42	mm	120	514	128
Frame#	Time	LASI			RASI			LPSI			RPSI			RTH1			RTH2			RTH3			LTH1			LTH2			LTH3			RTB1			RTB2			RTB3			LTB1			LTB2			LTB3			RCAL			RTOE			RMT5			LCAL			LTOE			LMT5			LACR			RACR			CLAV			C7			RUA1			RUA2			RUA3			RLEL			RMEL			LUA1			LUA2			LUA3			LLEL			LMEL			RFAsuperior			RFAradius			RFAulna			LFAsuperior			LFAradius			LFAulna		
		X1	Y1	Z1	X2	Y2	Z2	X3	Y3	Z3	X4	Y4	Z4	X5	Y5	Z5	X6	Y6	Z6	X7	Y7	Z7	X8	Y8	Z8	X9	Y9	Z9	X10	Y10	Z10	X11	Y11	Z11	X12	Y12	Z12	X13	Y13	Z13	X14	Y14	Z14	X15	Y15	Z15	X16	Y16	Z16	X17	Y17	Z17	X18	Y18	Z18	X19	Y19	Z19	X20	Y20	Z20	X21	Y21	Z21	X22	Y22	Z22	X23	Y23	Z23	X24	Y24	Z24	X25	Y25	Z25	X26	Y26	Z26	X27	Y27	Z27	X28	Y28	Z28	X29	Y29	Z29	X30	Y30	Z30	X31	Y31	Z31	X32	Y32	Z32	X33	Y33	Z33	X34	Y34	Z34	X35	Y35	Z35	X36	Y36	Z36	X37	Y37	Z37	X38	Y38	Z38	X39	Y39	Z39	X40	Y40	Z40	X41	Y41	Z41	X42	Y42	Z42	

514	  4.283333	982.548944	1035.000455	-445.002764	961.146199	1057.898805	-186.642973	794.064307	1067.966373	-369.618438	784.833050	1068.723744	-288.268215	924.298838	888.720379	-131.214835	1008.609961	798.464703	-139.996043	975.350020	671.528830	-183.438914	914.959067	815.697403	-485.455761	955.990854	691.866820	-469.045905	879.290029	586.898424	-452.869410	1075.583873	396.610269	-278.858195	1042.501795	329.728160	-215.974256	1028.975488	236.828547	-292.831501	799.114071	390.978573	-393.862323	707.418914	382.600512	-451.118535	607.530081	320.372078	-393.278938	879.194233	102.880887	-320.272756	1113.459130	 73.400263	-328.356192	1039.256278	 51.002638	-234.068916	446.345346	369.143544	-377.239948	507.239281	143.880652	-388.115073	459.134989	209.218236	-469.412338	981.477708	1516.569663	-488.780019	933.301909	1519.662119	-143.619235	1006.618766	1466.651823	-273.090464	882.789348	1554.296558	-323.173331	887.002497	1428.104092	-64.537341	854.066835	1344.231979	-68.292559	783.987222	1367.933640	-41.017694	709.501238	1252.738145	 -0.058649	682.275220	1253.859164	-78.112773	965.379438	1420.527122	-561.404229	964.547059	1347.691317	-547.992352	869.755509	1346.752771	-570.541832	855.668899	1183.423508	-614.630037	792.793748	1186.737593	-550.988209	792.731384	1183.974276	 -4.688818	920.809104	1094.873580	-99.080229	888.086522	1051.912478	-49.580210	942.791704	1178.049028	-568.602983	1050.048847	1210.460255	-423.154547	1054.334109	1138.669569	-438.379216	
515	  4.291667	980.424920	1031.471071	-445.886269	959.376165	1055.935993	-186.351603	791.960097	1063.782368	-370.048564	782.899674	1064.801812	-289.119012	921.303130	885.010519	-131.281461	1004.035979	793.891135	-138.474739	971.159361	667.879198	-183.681136	917.704121	811.634140	-485.316716	963.556738	688.785129	-468.512262	889.726562	582.760354	-452.517894	1068.134718	392.121645	-277.226263	1032.544906	325.759454	-214.970040	1016.293876	233.883807	-292.326938	811.805225	389.608950	-393.277721	720.139038	382.013035	-451.528806	618.897458	321.520509	-394.222674	862.760079	103.103009	-320.322810	1096.977573	 72.745645	-328.331107	1022.566058	 50.720941	-233.833938	457.129993	372.644925	-378.756906	517.624316	147.293421	-390.207141	470.286768	213.129612	-471.632058	979.604732	1511.769744	-489.308135	933.759119	1514.303146	-143.158105	1006.844036	1461.660217	-273.586312	882.678921	1550.348335	-322.775509	890.184170	1420.329334	-64.177882	860.180120	1335.012368	-67.067084	790.359029	1356.741048	-37.441710	720.959445	1239.163267	  5.167728	690.561499	1239.254840	-71.959667	962.082879	1415.742995	-561.775745	961.209533	1342.795357	-548.442247	866.318125	1342.408579	-570.238389	851.471852	1179.195790	-614.928524	789.368400	1182.403362	-550.767074	805.914855	1172.095636	 -1.520513	932.734868	1085.256335	-98.232751	902.553624	1042.297228	-47.093130	938.714775	1169.999688	-569.745378	1048.154544	1194.989291	-423.941906	1050.671316	1123.684035	-441.488635	
516	  4.300000	978.404055	1028.444228	-446.650417	957.547185	1054.720051	-185.680259	790.037599	1060.508126	-370.137421	780.922707	1061.909072	-289.476922	918.368481	882.222276	-131.061131	999.054830	789.889845	-137.051388	966.120182	664.890593	-183.823445	920.346967	807.952517	-485.175958	971.278504	686.105593	-468.022585	900.533037	579.115621	-452.334866	1059.785414	388.096306	-275.826196	1022.123881	322.207848	-214.288057	1003.346198	231.509113	-292.064724	824.768639	389.238065	-393.288509	733.372729	381.418959	-451.889512	631.135561	322.212242	-395.212162	846.329894	103.392694	-320.336476	1080.476820	 72.102580	-327.998926	1005.863648	 50.491323	-233.624551	468.690570	375.230220	-380.268552	529.493044	149.953052	-392.013060	482.478784	215.927930	-473.507966	977.642294	1507.648887	-489.743956	934.613453	1509.381991	-142.712783	1006.979701	1456.798296	-274.236461	882.210578	1546.679232	-322.392809	892.654976	1414.244664	-63.896813	866.411683	1326.693004	-66.495662	796.822967	1346.511554	-34.830209	733.241072	1226.375941	 10.104439	700.843241	1225.371079	-66.339191	958.449133	1412.047134	-562.066935	957.747501	1338.972523	-549.168028	862.581195	1339.011496	-569.537260	847.291120	1175.744175	-615.109641	785.806751	1178.755717	-550.408829	820.306816	1161.406059	  1.132198	945.686773	1076.777813	-97.519315	917.856952	1033.725631	-45.038831	934.402693	1162.872104	-570.428594	1046.119044	1179.617786	-425.124053	1046.547460	1108.907532	-444.902742	
517	  4.308333	976.481771	1025.838086	-447.101017	955.586492	1053.679136	-184.725918	788.222192	1057.916242	-369.953167	778.797082	1059.822580	-289.416780	915.401704	880.356557	-130.545135	993.993786	786.664560	-135.867706	960.528061	662.511363	-183.613743	922.944446	804.728416	-484.856793	978.998239	683.988303	-467.665344	911.546008	575.876780	-452.155121	1050.612761	384.708111	-274.660650	1011.430686	319.261201	-213.833533	990.199155	229.650058	-291.798467	837.983388	389.699089	-393.587850	747.071278	380.803525	-452.113993	644.152355	322.515147	-396.101681	829.973274	103.801678	-320.307667	1064.008366	 71.439364	-327.538269	989.193652	 50.253376	-233.380623	480.907431	376.830091	-381.768404	542.663731	151.783600	-393.510552	495.741676	217.604250	-475.050325	975.493188	1504.271972	-490.082444	935.726124	1504.953584	-142.219108	1006.886868	1452.485906	-274.964058	881.574833	1543.532033	-321.756296	894.753678	1409.296392	-63.614969	872.701608	1319.434968	-66.355825	803.203230	1337.258787	-33.098316	746.101836	1214.693633	 14.742174	712.492549	1212.467129	-61.129443	954.627641	1409.238650	-562.291576	954.159952	1336.077337	-550.086514	858.633363	1336.410738	-568.536903	843.147864	1173.168107	-615.204886	782.099678	1175.906637	-550.060500	835.476805	1152.172689	  3.337059	959.536723	1069.910061	-97.055220	933.841954	1026.545884	-43.621359	929.995172	1156.994051	-570.541243	1043.900600	1164.763844	-426.669129	1041.929280	1094.873230	-448.756350	
